<?xml version="1.0" encoding="utf-8"?>
<!-- Generator: Adobe Illustrator 19.1.1, SVG Export Plug-In . SVG Version: 6.00 Build 0)  -->
<svg version="1.1" id="Layer_1" xmlns="http://www.w3.org/2000/svg" xmlns:xlink="http://www.w3.org/1999/xlink" x="0px" y="0px"
	 viewBox="0 0 233.3 512" enable-background="new 0 0 233.3 512" xml:space="preserve">
<g>
	<defs>
		<rect id="SVGID_1_" width="233.3" height="512"/>
	</defs>
	<clipPath id="SVGID_2_">
		<use xlink:href="#SVGID_1_"  overflow="visible"/>
	</clipPath>
	<path clip-path="url(#SVGID_2_)" fill="#D67DBB" d="M114.3,103.2l2.3,0.8l2.3-0.8c2.5-0.9,61.6-22.7,61.6-64.8
		c0-21.2-17.2-38.4-38.4-38.4c-9.4,0-18.5,3.5-25.5,9.7c-7-6.2-16-9.7-25.5-9.7C70,0,52.8,17.2,52.8,38.4
		C52.8,80.4,111.8,102.3,114.3,103.2 M91.1,13.6c7.9,0,15.3,3.8,20,10.2l5.5,7.5l5.5-7.5c4.7-6.4,12.1-10.2,20-10.2
		c13.6,0,24.7,11.1,24.7,24.7c0,28.5-40.1,46.9-50.2,51.1C106.5,85.3,66.4,67,66.4,38.4C66.4,24.7,77.5,13.6,91.1,13.6"/>
	<path clip-path="url(#SVGID_2_)" fill="#D67DBB" d="M36.8,371.4L36.8,371.4c3.7,1,7.6-1.1,8.9-4.7C52.5,347.6,67,332,85.2,324
		c3.5-1.5,5.3-5.5,4.1-9.2c-1.4-4.2-6.1-6.3-10.2-4.5c-21.9,9.6-39.3,28.4-47.5,51.3C30.1,365.7,32.5,370.3,36.8,371.4"/>
	<path clip-path="url(#SVGID_2_)" fill="#D67DBB" d="M233.3,395.3v-7.4H233c-2.9-44.3-30.9-83.4-71.9-100.4v-17.7
		c0-4.1-3.4-7.5-7.5-7.5c-4.1,0-7.5,3.4-7.5,7.5v28.1l5,1.8c37.9,13.6,64,48.5,67,88.2H15.3c3-40.1,29.4-75,67.8-88.5l5-1.8V188.2
		h58v26.6c0,4.1,3.4,7.5,7.5,7.5c4.1,0,7.5-3.4,7.5-7.5V188c12.3-1.7,21.8-12.2,21.8-25v-5.1c0-13.9-11.3-25.2-25.2-25.2H76.5
		c-13.9,0-25.2,11.3-25.2,25.2v5.1c0,12.8,9.5,23.3,21.8,25v99.2C31.5,303.9,3.1,343.2,0.3,387.9H0l0,6.3
		C0,458.3,51.4,511.4,115.6,512c4.4,0,8.7-0.2,13-0.6C187.3,505.4,233.3,455.7,233.3,395.3C233.3,395.3,233.3,395.3,233.3,395.3
		 M66.2,163v-5.1c0-5.6,4.6-10.2,10.2-10.2h81.2c5.6,0,10.2,4.6,10.2,10.2v5.1c0,5.6-4.6,10.2-10.2,10.2H76.5
		C70.8,173.2,66.2,168.6,66.2,163 M218,403c0,0.5-0.1,0.9-0.1,1.4c0,0.4-0.1,0.8-0.1,1.1c0,0.5-0.1,0.9-0.1,1.4
		c0,0.4-0.1,0.7-0.1,1.1c-0.1,0.5-0.1,0.9-0.2,1.4c-0.1,0.4-0.1,0.7-0.2,1.1c-0.1,0.5-0.1,0.9-0.2,1.4c-0.1,0.4-0.1,0.7-0.2,1.1
		c-0.1,0.5-0.2,0.9-0.2,1.4c-0.1,0.4-0.1,0.7-0.2,1.1c-0.1,0.5-0.2,0.9-0.3,1.4c-0.1,0.3-0.1,0.7-0.2,1c-0.1,0.5-0.2,0.9-0.3,1.4
		c-0.1,0.3-0.2,0.7-0.2,1c-0.1,0.5-0.2,0.9-0.4,1.4c-0.1,0.3-0.2,0.7-0.3,1c-0.1,0.5-0.3,0.9-0.4,1.4c-0.1,0.3-0.2,0.6-0.3,1
		c-0.1,0.5-0.3,0.9-0.4,1.4c-0.1,0.3-0.2,0.6-0.3,0.9c-0.2,0.5-0.3,0.9-0.5,1.4c-0.1,0.3-0.2,0.6-0.3,0.9c-0.2,0.5-0.3,0.9-0.5,1.4
		c-0.1,0.3-0.2,0.6-0.3,0.9c-0.2,0.5-0.4,0.9-0.5,1.4c-0.1,0.3-0.2,0.6-0.3,0.8c-0.2,0.5-0.4,0.9-0.6,1.4c-0.1,0.3-0.2,0.5-0.3,0.8
		c-0.2,0.5-0.4,1-0.6,1.4c-0.1,0.2-0.2,0.5-0.3,0.7c-0.2,0.5-0.5,1-0.7,1.5c-0.1,0.2-0.2,0.4-0.3,0.6c-0.3,0.5-0.5,1.1-0.8,1.6
		c-0.1,0.1-0.1,0.2-0.2,0.3c-1.7,3.3-3.6,6.5-5.7,9.6c-0.1,0.1-0.1,0.2-0.1,0.2c-0.3,0.5-0.7,1-1.1,1.5c-0.1,0.1-0.2,0.3-0.3,0.4
		c-0.3,0.5-0.7,0.9-1,1.4c-0.1,0.2-0.3,0.4-0.4,0.5c-0.3,0.4-0.7,0.9-1,1.3c-0.1,0.2-0.3,0.4-0.4,0.6c-0.3,0.4-0.7,0.8-1,1.3
		c-0.2,0.2-0.3,0.4-0.5,0.6c-0.3,0.4-0.7,0.8-1,1.2c-0.2,0.2-0.4,0.4-0.5,0.6c-0.3,0.4-0.7,0.8-1,1.2c-0.2,0.2-0.4,0.4-0.6,0.6
		c-0.3,0.4-0.7,0.7-1,1.1c-0.2,0.2-0.4,0.4-0.6,0.6c-0.3,0.4-0.7,0.7-1,1.1c-0.2,0.2-0.4,0.4-0.6,0.6c-0.3,0.4-0.7,0.7-1.1,1.1
		c-0.2,0.2-0.4,0.4-0.6,0.6c-0.4,0.3-0.7,0.7-1.1,1c-0.2,0.2-0.4,0.4-0.7,0.6c-0.4,0.3-0.7,0.7-1.1,1c-0.2,0.2-0.4,0.4-0.7,0.6
		c-0.4,0.3-0.7,0.7-1.1,1c-0.2,0.2-0.5,0.4-0.7,0.6c-0.4,0.3-0.8,0.6-1.1,1c-0.2,0.2-0.5,0.4-0.7,0.6c-0.4,0.3-0.8,0.6-1.2,0.9
		c-0.2,0.2-0.5,0.4-0.7,0.5c-0.4,0.3-0.8,0.6-1.2,0.9c-0.2,0.2-0.5,0.3-0.7,0.5c-0.4,0.3-0.8,0.6-1.2,0.9c-0.2,0.2-0.4,0.3-0.7,0.5
		c-0.4,0.3-0.9,0.6-1.3,0.9c-0.2,0.1-0.4,0.3-0.6,0.4c-0.5,0.3-0.9,0.6-1.4,0.9c-0.1,0.1-0.3,0.2-0.4,0.3c-1.8,1.1-3.6,2.2-5.5,3.2
		c-0.1,0-0.1,0.1-0.2,0.1c-0.5,0.3-0.9,0.5-1.4,0.7c-0.2,0.1-0.5,0.3-0.7,0.4c-0.4,0.2-0.9,0.4-1.3,0.6c-0.3,0.1-0.6,0.3-0.9,0.4
		c-0.4,0.2-0.8,0.4-1.2,0.6c-0.3,0.2-0.6,0.3-1,0.5c-0.4,0.2-0.8,0.4-1.2,0.5c-0.3,0.1-0.7,0.3-1,0.4c-0.4,0.2-0.8,0.3-1.2,0.5
		c-0.3,0.1-0.7,0.3-1,0.4c-0.4,0.2-0.8,0.3-1.2,0.5c-0.4,0.1-0.7,0.3-1.1,0.4c-0.4,0.1-0.8,0.3-1.2,0.4c-0.4,0.1-0.7,0.3-1.1,0.4
		c-0.4,0.1-0.8,0.3-1.2,0.4c-0.4,0.1-0.8,0.3-1.1,0.4c-0.4,0.1-0.8,0.2-1.2,0.4c-0.4,0.1-0.8,0.2-1.2,0.3c-0.4,0.1-0.8,0.2-1.2,0.3
		c-0.4,0.1-0.8,0.2-1.2,0.3c-0.4,0.1-0.8,0.2-1.2,0.3c-0.4,0.1-0.8,0.2-1.2,0.3c-0.4,0.1-0.8,0.2-1.2,0.3c-0.4,0.1-0.8,0.2-1.2,0.3
		c-0.4,0.1-0.8,0.2-1.2,0.2c-0.4,0.1-0.8,0.2-1.3,0.2c-0.4,0.1-0.8,0.1-1.2,0.2c-0.4,0.1-0.9,0.1-1.3,0.2c-0.4,0.1-0.8,0.1-1.2,0.2
		c-0.4,0.1-0.9,0.1-1.3,0.2c-0.4,0.1-0.8,0.1-1.2,0.2c-0.5,0.1-0.9,0.1-1.4,0.2c-0.4,0-0.7,0.1-1.1,0.1c-0.5,0-0.9,0.1-1.4,0.1
		c-0.4,0-0.7,0.1-1.1,0.1c-0.5,0-1,0.1-1.5,0.1c-0.3,0-0.7,0-1,0.1c-0.6,0-1.1,0-1.7,0.1c-0.3,0-0.6,0-0.9,0c-0.9,0-1.7,0-2.6,0
		c-0.9,0-1.7,0-2.6,0c-0.3,0-0.6,0-0.8,0c-0.6,0-1.1,0-1.7-0.1c-0.3,0-0.7,0-1-0.1c-0.5,0-1-0.1-1.5-0.1c-0.4,0-0.7-0.1-1.1-0.1
		c-0.5,0-1-0.1-1.4-0.1c-0.4,0-0.7-0.1-1.1-0.1c-0.5-0.1-0.9-0.1-1.4-0.2c-0.4,0-0.8-0.1-1.1-0.2c-0.4-0.1-0.9-0.1-1.3-0.2
		c-0.4-0.1-0.8-0.1-1.2-0.2c-0.4-0.1-0.9-0.1-1.3-0.2c-0.4-0.1-0.8-0.1-1.2-0.2c-0.4-0.1-0.9-0.2-1.3-0.2c-0.4-0.1-0.8-0.2-1.2-0.2
		c-0.4-0.1-0.8-0.2-1.3-0.3c-0.4-0.1-0.8-0.2-1.2-0.3c-0.4-0.1-0.8-0.2-1.2-0.3c-0.4-0.1-0.8-0.2-1.2-0.3c-0.4-0.1-0.8-0.2-1.2-0.3
		c-0.4-0.1-0.8-0.2-1.2-0.3c-0.4-0.1-0.8-0.2-1.2-0.4c-0.4-0.1-0.8-0.2-1.2-0.4c-0.4-0.1-0.8-0.2-1.2-0.4c-0.4-0.1-0.8-0.3-1.2-0.4
		c-0.4-0.1-0.8-0.3-1.1-0.4c-0.4-0.1-0.8-0.3-1.2-0.4c-0.4-0.1-0.7-0.3-1.1-0.4c-0.4-0.1-0.8-0.3-1.2-0.5c-0.4-0.1-0.7-0.3-1.1-0.4
		c-0.4-0.2-0.8-0.3-1.2-0.5c-0.4-0.2-0.7-0.3-1.1-0.5c-0.4-0.2-0.8-0.3-1.2-0.5c-0.3-0.2-0.7-0.3-1-0.5c-0.4-0.2-0.8-0.4-1.2-0.6
		c-0.3-0.2-0.6-0.3-1-0.5c-0.4-0.2-0.8-0.4-1.2-0.6c-0.3-0.1-0.6-0.3-0.9-0.5c-0.4-0.2-0.9-0.4-1.3-0.7c-0.2-0.1-0.4-0.2-0.5-0.3
		c-1.7-0.9-3.3-1.9-5-2.9c-0.2-0.1-0.4-0.2-0.6-0.4c-0.4-0.3-0.9-0.6-1.3-0.8c-0.2-0.2-0.5-0.3-0.7-0.5c-0.4-0.3-0.8-0.6-1.2-0.8
		c-0.3-0.2-0.5-0.3-0.8-0.5c-0.4-0.3-0.8-0.6-1.2-0.8c-0.3-0.2-0.5-0.4-0.8-0.6c-0.4-0.3-0.8-0.6-1.1-0.9c-0.3-0.2-0.5-0.4-0.8-0.6
		c-0.4-0.3-0.7-0.6-1.1-0.9c-0.3-0.2-0.5-0.4-0.8-0.6c-0.4-0.3-0.7-0.6-1.1-0.9c-0.2-0.2-0.5-0.4-0.7-0.6c-0.4-0.3-0.7-0.6-1.1-0.9
		c-0.2-0.2-0.5-0.4-0.7-0.6c-0.3-0.3-0.7-0.6-1-0.9c-0.2-0.2-0.5-0.4-0.7-0.7c-0.3-0.3-0.7-0.6-1-1c-0.2-0.2-0.5-0.5-0.7-0.7
		c-0.3-0.3-0.7-0.7-1-1c-0.2-0.2-0.4-0.5-0.7-0.7c-0.3-0.3-0.7-0.7-1-1c-0.2-0.2-0.4-0.5-0.6-0.7c-0.3-0.4-0.6-0.7-1-1.1
		c-0.2-0.2-0.4-0.5-0.6-0.7c-0.3-0.4-0.6-0.7-0.9-1.1c-0.2-0.2-0.4-0.5-0.6-0.7c-0.3-0.4-0.6-0.7-0.9-1.1c-0.2-0.2-0.4-0.5-0.6-0.7
		c-0.3-0.4-0.6-0.8-0.9-1.2c-0.2-0.2-0.4-0.5-0.5-0.7c-0.3-0.4-0.6-0.8-0.9-1.2c-0.2-0.2-0.3-0.4-0.5-0.7c-0.3-0.4-0.6-0.8-0.9-1.3
		c-0.1-0.2-0.3-0.4-0.4-0.6c-0.3-0.5-0.6-0.9-0.9-1.4c-0.1-0.2-0.2-0.3-0.3-0.5c-0.3-0.5-0.7-1-1-1.5c0,0,0-0.1-0.1-0.1
		c-1.2-1.9-2.3-3.8-3.4-5.8c0-0.1-0.1-0.1-0.1-0.2c-0.3-0.5-0.5-1-0.8-1.5c-0.1-0.2-0.2-0.4-0.3-0.6c-0.2-0.5-0.5-0.9-0.7-1.4
		c-0.1-0.3-0.3-0.5-0.4-0.8c-0.2-0.4-0.4-0.9-0.6-1.3c-0.1-0.3-0.3-0.6-0.4-0.9c-0.2-0.4-0.4-0.9-0.6-1.3c-0.1-0.3-0.3-0.6-0.4-0.9
		c-0.2-0.4-0.4-0.8-0.5-1.3c-0.1-0.3-0.3-0.6-0.4-1c-0.2-0.4-0.3-0.8-0.5-1.3c-0.1-0.3-0.3-0.7-0.4-1c-0.2-0.4-0.3-0.8-0.5-1.3
		c-0.1-0.3-0.2-0.7-0.4-1c-0.1-0.4-0.3-0.8-0.4-1.3c-0.1-0.4-0.2-0.7-0.3-1.1c-0.1-0.4-0.3-0.8-0.4-1.2c-0.1-0.4-0.2-0.7-0.3-1.1
		c-0.1-0.4-0.2-0.8-0.4-1.2c-0.1-0.4-0.2-0.8-0.3-1.1c-0.1-0.4-0.2-0.8-0.3-1.2c-0.1-0.4-0.2-0.8-0.3-1.2c-0.1-0.4-0.2-0.8-0.3-1.2
		c-0.1-0.4-0.2-0.8-0.3-1.2c-0.1-0.4-0.2-0.8-0.3-1.2c-0.1-0.4-0.2-0.8-0.2-1.2c-0.1-0.4-0.2-0.8-0.2-1.2c-0.1-0.4-0.1-0.8-0.2-1.3
		c-0.1-0.4-0.1-0.8-0.2-1.2c-0.1-0.4-0.1-0.9-0.2-1.3c-0.1-0.4-0.1-0.8-0.2-1.2c-0.1-0.5-0.1-0.9-0.2-1.4c0-0.4-0.1-0.7-0.1-1.1
		c0-0.5-0.1-1-0.1-1.5c0-0.4-0.1-0.7-0.1-1c0-0.1,0-0.1,0-0.2H218C218,402.9,218,402.9,218,403"/>
	<path clip-path="url(#SVGID_2_)" fill="#D67DBB" d="M121.2,459.9c0,4.3-3.5,7.8-7.8,7.8c-4.3,0-7.8-3.5-7.8-7.8s3.5-7.8,7.8-7.8
		C117.8,452.1,121.2,455.6,121.2,459.9"/>
	<path clip-path="url(#SVGID_2_)" fill="#D67DBB" d="M172.4,431.7c0,6.1-4.9,11-11,11c-6.1,0-11-4.9-11-11c0-6.1,4.9-11,11-11
		C167.5,420.7,172.4,425.6,172.4,431.7"/>
	<path clip-path="url(#SVGID_2_)" fill="#D67DBB" d="M138.6,357.1c0,4.5-3.7,8.2-8.2,8.2c-4.5,0-8.2-3.7-8.2-8.2s3.7-8.2,8.2-8.2
		C134.9,348.9,138.6,352.6,138.6,357.1"/>
</g>
</svg>
