<?xml version="1.0" encoding="utf-8"?>
<!-- Generator: Adobe Illustrator 19.1.1, SVG Export Plug-In . SVG Version: 6.00 Build 0)  -->
<svg version="1.1" id="Layer_1" xmlns="http://www.w3.org/2000/svg" xmlns:xlink="http://www.w3.org/1999/xlink" x="0px" y="0px"
	 viewBox="0 0 436.4 440.1" enable-background="new 0 0 436.4 440.1" xml:space="preserve">
<g>
	<defs>
		<rect id="SVGID_1_" width="436.4" height="440.1"/>
	</defs>
	<clipPath id="SVGID_2_">
		<use xlink:href="#SVGID_1_"  overflow="visible"/>
	</clipPath>
	<path clip-path="url(#SVGID_2_)" fill="#D67DBB" d="M64.5,300.2c0,18.9,15.4,34.3,34.3,34.3c18.9,0,34.3-15.4,34.3-34.3
		c0-18.9-15.4-34.3-34.3-34.3C79.9,265.9,64.5,281.3,64.5,300.2 M120.3,300.2c0,11.9-9.6,21.5-21.5,21.5c-11.9,0-21.5-9.6-21.5-21.5
		c0-11.9,9.6-21.5,21.5-21.5C110.7,278.7,120.3,288.4,120.3,300.2 M358.1,242.1c-18.9,0-34.3,15.4-34.3,34.3
		c0,18.9,15.4,34.3,34.3,34.3c18.9,0,34.3-15.4,34.3-34.3C392.4,257.5,377,242.1,358.1,242.1 M358.1,298c-11.9,0-21.5-9.6-21.5-21.5
		c0-11.9,9.6-21.5,21.5-21.5c11.9,0,21.5,9.6,21.5,21.5C379.6,288.3,369.9,298,358.1,298 M416.7,191.6c-1.7-3.1-5.6-4.2-8.7-2.5
		c-3.1,1.7-4.2,5.6-2.5,8.7c11.3,20.7,17.1,42.6,17.1,65.4c0,90-91.7,163.1-204.4,163.1c-32.6,0-63.7-5.9-92.5-17.7
		c-27.4-11.1-51.7-27.4-70.4-47c-2.4-2.6-6.5-2.7-9.1-0.2c-2.6,2.4-2.7,6.5-0.2,9.1c19.9,20.9,45.8,38.2,74.8,50
		c30.4,12.3,63.1,18.6,97.3,18.6c57.8,0,112.1-18.1,153.1-51.1c41.4-33.3,64.1-77.6,64.1-124.9C435.4,238.2,429.1,214.1,416.7,191.6
		 M13.8,263.1c0-0.9,0-1.7,0-2.6c0.4-20,8.2-38.5,21.4-52.4c-2.9,12.3,0.5,25.6,9.9,35c7.2,7.2,16.8,10.9,26.4,10.9
		c8.1,0,16.1-2.6,22.9-7.9l56.9-44.3c8.1,3.9,16.2,7.7,23.9,11.4c7.4,3.5,15.4,5.3,23.3,5.3c10,0,20-2.8,28.8-8.4
		c15.8-10,25.2-27.1,25.2-45.8c0-16.1,8.1-31,21.7-39.7c13.7-8.8,30.6-10,45.4-3.2c24.8,11.3,46.8,27.1,63.7,45.6
		c2.4,2.6,6.5,2.8,9.1,0.4c2.6-2.4,2.8-6.5,0.4-9.1c-18-19.7-41.5-36.5-67.8-48.6c-18.8-8.6-40.4-7.1-57.7,4
		c-17.3,11.1-27.6,30-27.6,50.5c0,14.2-7.2,27.3-19.2,34.9c-12.1,7.6-26.9,8.5-39.8,2.4c-6-2.9-12.2-5.8-18.4-8.8
		c17.9-15.5,33.2-33.6,45.7-53.9c3-4.9,4.7-10.4,5.1-16c1.9,0.2,3.8,0.3,5.7,0.3c14.1,0,27.9-5.5,38.1-15.7
		c16.8-16.8,27.3-52.5,26.7-90.8c-0.1-4.9-2.4-9.5-6.3-12.4c-3.9-3-8.9-3.9-13.7-2.7c-6.3,1.7-12.9,3.2-19.8,4.8
		c-24.2,5.5-49.1,11.2-62.9,25c-11.6,11.6-17.2,27.8-15.4,43.8c-5.6,0.4-11.2,2.1-16,5.1c-23.9,14.7-44.7,33.4-61.9,55.5l-33.9,43.5
		c-31.7,15.2-51.7,46.1-52.4,81c0,0.9,0,1.9,0,2.8c0,24.4,6,47.9,17.8,70c1.7,3.2,3.5,6.3,5.5,9.5c1.2,1.9,3.3,3,5.4,3
		c1.2,0,2.3-0.3,3.4-1c3-1.9,3.9-5.8,2-8.8C21,313.1,13.8,288.6,13.8,263.1 M189.8,40.4c11.2-11.2,34.3-16.5,56.7-21.6
		c6.8-1.5,13.8-3.2,20.3-4.9c1.3-0.3,2.2,0.2,2.6,0.5c0.4,0.3,1.2,1.1,1.2,2.4c0.6,34.5-8.6,67.3-22.9,81.5
		c-9.5,9.5-23.2,13.7-36.4,11.3c-0.2-0.6-0.4-1.3-0.7-1.9c-5.4-13.9-16.5-24.9-30.3-30.3c-0.6-0.2-1.3-0.5-1.9-0.7
		C176.1,63.6,180.3,50,189.8,40.4 M52.2,201.8l10.5-13.5c0,0,0,0,0,0l34.8-44.6c9.2-11.8,19.4-22.5,30.6-32.1l23.4,23.4
		c1.3,1.3,2.9,1.9,4.5,1.9c1.6,0,3.3-0.6,4.5-1.9c2.5-2.5,2.5-6.6,0-9.1l-22.4-22.4c5.7-4.4,11.7-8.4,17.9-12.3
		c3.5-2.2,7.6-3.3,11.7-3.3c2.7,0,5.5,0.5,8.1,1.5c10.5,4.1,18.9,12.5,23,23c2.5,6.5,1.8,13.9-1.8,19.8c-3.8,6.2-7.9,12.1-12.3,17.9
		l-3.3-3.3c-2.5-2.5-6.6-2.5-9.1,0c-2.5,2.5-2.5,6.6,0,9.1l4.3,4.3c-9.6,11.2-20.3,21.5-32.1,30.6l-58.1,45.3
		c-9.7,7.6-23.6,6.7-32.3-2C45.5,225.4,44.6,211.5,52.2,201.8 M159.4,279.3c0.4,0,0.7,0,1.1-0.1c3.5-0.6,5.8-3.9,5.2-7.4l-2.1-11.7
		c-0.6-3.5-3.9-5.8-7.4-5.2c-3.5,0.6-5.8,3.9-5.2,7.4l2.1,11.7C153.6,277.1,156.4,279.3,159.4,279.3 M300.3,254.5
		c0.4,0,0.7,0,1.1-0.1c3.5-0.6,5.8-3.9,5.2-7.4l-2.1-11.7c-0.6-3.5-3.9-5.8-7.4-5.2c-3.5,0.6-5.8,3.9-5.2,7.4l2.1,11.7
		C294.6,252.3,297.3,254.5,300.3,254.5 M232.6,275.8c8.9-1.6,16.8-7,21.5-14.7c1.8-3,0.9-7-2.2-8.8c-3-1.8-7-0.9-8.8,2.2
		c-2.8,4.6-7.4,7.8-12.7,8.7c-5.3,0.9-10.7-0.5-14.9-3.9c-2.8-2.2-6.8-1.8-9,1c-2.2,2.8-1.8,6.8,1,9c5.6,4.6,12.6,7,19.8,7
		C228.9,276.2,230.8,276.1,232.6,275.8 M186.8,395.5c18.9,0,34.3-15.4,34.3-34.3c0-18.9-15.4-34.3-34.3-34.3
		c-18.9,0-34.3,15.4-34.3,34.3C152.5,380.1,167.9,395.5,186.8,395.5 M186.8,339.6c11.9,0,21.5,9.6,21.5,21.5
		c0,11.9-9.6,21.5-21.5,21.5c-11.9,0-21.5-9.6-21.5-21.5C165.3,349.3,174.9,339.6,186.8,339.6 M289.2,388.6
		c18.9,0,34.3-15.4,34.3-34.3s-15.4-34.3-34.3-34.3c-18.9,0-34.3,15.4-34.3,34.3C254.9,373.2,270.3,388.6,289.2,388.6 M289.2,332.8
		c11.9,0,21.5,9.6,21.5,21.5c0,11.9-9.6,21.5-21.5,21.5c-11.9,0-21.5-9.6-21.5-21.5C267.7,342.4,277.3,332.8,289.2,332.8"/>
	<path clip-path="url(#SVGID_2_)" fill="none" stroke="#D67DBB" stroke-width="2" stroke-miterlimit="10" d="M64.5,300.2
		c0,18.9,15.4,34.3,34.3,34.3c18.9,0,34.3-15.4,34.3-34.3c0-18.9-15.4-34.3-34.3-34.3C79.9,265.9,64.5,281.3,64.5,300.2z
		 M120.3,300.2c0,11.9-9.6,21.5-21.5,21.5c-11.9,0-21.5-9.6-21.5-21.5c0-11.9,9.6-21.5,21.5-21.5
		C110.7,278.7,120.3,288.4,120.3,300.2z M358.1,242.1c-18.9,0-34.3,15.4-34.3,34.3c0,18.9,15.4,34.3,34.3,34.3
		c18.9,0,34.3-15.4,34.3-34.3C392.4,257.5,377,242.1,358.1,242.1z M358.1,298c-11.9,0-21.5-9.6-21.5-21.5c0-11.9,9.6-21.5,21.5-21.5
		c11.9,0,21.5,9.6,21.5,21.5C379.6,288.3,369.9,298,358.1,298z M416.7,191.6c-1.7-3.1-5.6-4.2-8.7-2.5c-3.1,1.7-4.2,5.6-2.5,8.7
		c11.3,20.7,17.1,42.6,17.1,65.4c0,90-91.7,163.1-204.4,163.1c-32.6,0-63.7-5.9-92.5-17.7c-27.4-11.1-51.7-27.4-70.4-47
		c-2.4-2.6-6.5-2.7-9.1-0.2c-2.6,2.4-2.7,6.5-0.2,9.1c19.9,20.9,45.8,38.2,74.8,50c30.4,12.3,63.1,18.6,97.3,18.6
		c57.8,0,112.1-18.1,153.1-51.1c41.4-33.3,64.1-77.6,64.1-124.9C435.4,238.2,429.1,214.1,416.7,191.6z M13.8,263.1
		c0-0.9,0-1.7,0-2.6c0.4-20,8.2-38.5,21.4-52.4c-2.9,12.3,0.5,25.6,9.9,35c7.2,7.2,16.8,10.9,26.4,10.9c8.1,0,16.1-2.6,22.9-7.9
		l56.9-44.3c8.1,3.9,16.2,7.7,23.9,11.4c7.4,3.5,15.4,5.3,23.3,5.3c10,0,20-2.8,28.8-8.4c15.8-10,25.2-27.1,25.2-45.8
		c0-16.1,8.1-31,21.7-39.7c13.7-8.8,30.6-10,45.4-3.2c24.8,11.3,46.8,27.1,63.7,45.6c2.4,2.6,6.5,2.8,9.1,0.4
		c2.6-2.4,2.8-6.5,0.4-9.1c-18-19.7-41.5-36.5-67.8-48.6c-18.8-8.6-40.4-7.1-57.7,4c-17.3,11.1-27.6,30-27.6,50.5
		c0,14.2-7.2,27.3-19.2,34.9c-12.1,7.6-26.9,8.5-39.8,2.4c-6-2.9-12.2-5.8-18.4-8.8c17.9-15.5,33.2-33.6,45.7-53.9
		c3-4.9,4.7-10.4,5.1-16c1.9,0.2,3.8,0.3,5.7,0.3c14.1,0,27.9-5.5,38.1-15.7c16.8-16.8,27.3-52.5,26.7-90.8
		c-0.1-4.9-2.4-9.5-6.3-12.4c-3.9-3-8.9-3.9-13.7-2.7c-6.3,1.7-12.9,3.2-19.8,4.8c-24.2,5.5-49.1,11.2-62.9,25
		c-11.6,11.6-17.2,27.8-15.4,43.8c-5.6,0.4-11.2,2.1-16,5.1c-23.9,14.7-44.7,33.4-61.9,55.5l-33.9,43.5
		c-31.7,15.2-51.7,46.1-52.4,81c0,0.9,0,1.9,0,2.8c0,24.4,6,47.9,17.8,70c1.7,3.2,3.5,6.3,5.5,9.5c1.2,1.9,3.3,3,5.4,3
		c1.2,0,2.3-0.3,3.4-1c3-1.9,3.9-5.8,2-8.8C21,313.1,13.8,288.6,13.8,263.1z M189.8,40.4c11.2-11.2,34.3-16.5,56.7-21.6
		c6.8-1.5,13.8-3.2,20.3-4.9c1.3-0.3,2.2,0.2,2.6,0.5c0.4,0.3,1.2,1.1,1.2,2.4c0.6,34.5-8.6,67.3-22.9,81.5
		c-9.5,9.5-23.2,13.7-36.4,11.3c-0.2-0.6-0.4-1.3-0.7-1.9c-5.4-13.9-16.5-24.9-30.3-30.3c-0.6-0.2-1.3-0.5-1.9-0.7
		C176.1,63.6,180.3,50,189.8,40.4z M52.2,201.8l10.5-13.5c0,0,0,0,0,0l34.8-44.6c9.2-11.8,19.4-22.5,30.6-32.1l23.4,23.4
		c1.3,1.3,2.9,1.9,4.5,1.9c1.6,0,3.3-0.6,4.5-1.9c2.5-2.5,2.5-6.6,0-9.1l-22.4-22.4c5.7-4.4,11.7-8.4,17.9-12.3
		c3.5-2.2,7.6-3.3,11.7-3.3c2.7,0,5.5,0.5,8.1,1.5c10.5,4.1,18.9,12.5,23,23c2.5,6.5,1.8,13.9-1.8,19.8c-3.8,6.2-7.9,12.1-12.3,17.9
		l-3.3-3.3c-2.5-2.5-6.6-2.5-9.1,0c-2.5,2.5-2.5,6.6,0,9.1l4.3,4.3c-9.6,11.2-20.3,21.5-32.1,30.6l-58.1,45.3
		c-9.7,7.6-23.6,6.7-32.3-2C45.5,225.4,44.6,211.5,52.2,201.8z M159.4,279.3c0.4,0,0.7,0,1.1-0.1c3.5-0.6,5.8-3.9,5.2-7.4l-2.1-11.7
		c-0.6-3.5-3.9-5.8-7.4-5.2c-3.5,0.6-5.8,3.9-5.2,7.4l2.1,11.7C153.6,277.1,156.4,279.3,159.4,279.3z M300.3,254.5
		c0.4,0,0.7,0,1.1-0.1c3.5-0.6,5.8-3.9,5.2-7.4l-2.1-11.7c-0.6-3.5-3.9-5.8-7.4-5.2c-3.5,0.6-5.8,3.9-5.2,7.4l2.1,11.7
		C294.6,252.3,297.3,254.5,300.3,254.5z M232.6,275.8c8.9-1.6,16.8-7,21.5-14.7c1.8-3,0.9-7-2.2-8.8c-3-1.8-7-0.9-8.8,2.2
		c-2.8,4.6-7.4,7.8-12.7,8.7c-5.3,0.9-10.7-0.5-14.9-3.9c-2.8-2.2-6.8-1.8-9,1c-2.2,2.8-1.8,6.8,1,9c5.6,4.6,12.6,7,19.8,7
		C228.9,276.2,230.8,276.1,232.6,275.8z M186.8,395.5c18.9,0,34.3-15.4,34.3-34.3c0-18.9-15.4-34.3-34.3-34.3
		c-18.9,0-34.3,15.4-34.3,34.3C152.5,380.1,167.9,395.5,186.8,395.5z M186.8,339.6c11.9,0,21.5,9.6,21.5,21.5
		c0,11.9-9.6,21.5-21.5,21.5c-11.9,0-21.5-9.6-21.5-21.5C165.3,349.3,174.9,339.6,186.8,339.6z M289.2,388.6
		c18.9,0,34.3-15.4,34.3-34.3s-15.4-34.3-34.3-34.3c-18.9,0-34.3,15.4-34.3,34.3C254.9,373.2,270.3,388.6,289.2,388.6z M289.2,332.8
		c11.9,0,21.5,9.6,21.5,21.5c0,11.9-9.6,21.5-21.5,21.5c-11.9,0-21.5-9.6-21.5-21.5C267.7,342.4,277.3,332.8,289.2,332.8z"/>
</g>
</svg>
