<?xml version="1.0" encoding="utf-8"?>
<!-- Generator: Adobe Illustrator 19.1.1, SVG Export Plug-In . SVG Version: 6.00 Build 0)  -->
<svg version="1.1" id="Layer_1" xmlns="http://www.w3.org/2000/svg" xmlns:xlink="http://www.w3.org/1999/xlink" x="0px" y="0px"
	 viewBox="0 0 190.3 475.2" enable-background="new 0 0 190.3 475.2" xml:space="preserve">
<g>
	<defs>
		<rect id="SVGID_1_" width="190.3" height="475.2"/>
	</defs>
	<clipPath id="SVGID_2_">
		<use xlink:href="#SVGID_1_"  overflow="visible"/>
	</clipPath>
	<path clip-path="url(#SVGID_2_)" fill="#D67DBB" d="M172.4,39.1c4,0,7.2-3.2,7.2-7.2V19.5c0-10.7-8.7-19.5-19.5-19.5H92.9
		C82.2,0,73.5,8.7,73.5,19.5v46c0,9.7,6.5,18.4,15.9,21l15.2,4.3v60c0,4.4,1.4,8.5,3.7,11.9c-1,17-6.2,52.9-32,74.5
		c-7,5.9-6.9,16.7,0.2,22.6c12.5,9.2,16.4,16.6,26.8,16.6c7,0,13.5-3.9,16.7-10.3c7.7-15.4,20.7-49,21.8-101.8
		c3-3.6,4.9-8.3,4.9-13.4v-48c3.4,0.2,14.2,7.1,25.1-1.1c5.1-3.8,8-9.6,8-16V65.6c0-4-3.2-7.2-7.2-7.2c-4,0-7.2,3.2-7.2,7.2v20.1
		c0,1.8-0.8,3.4-2.2,4.4c-3.7,2.8-6.3-0.1-21.7-3.9c-9.4-2.7-38.4-10.9-48-13.7c-3.1-0.9-5.3-3.8-5.3-7.1v-46c0-2.7,2.3-5,5-5h67.2
		c2.7,0,5,2.3,5,5v12.4C165.2,35.8,168.4,39.1,172.4,39.1 M106.9,259.5c-1.2,2.4-4.3,3-6.4,1.3l-14.9-12.3c-0.1-0.1-0.1-0.3-0.1-0.3
		c22.4-18.7,33.4-47.7,36.5-76.7c1.6,0.3,3.3,0.3,4.9,0.2C124.9,217.1,113.7,245.9,106.9,259.5 M132,150.8c0,2-0.9,3.7-2.2,4.9
		c-4.3,3.7-10.8,0.6-10.8-4.9V95l13,3.7V150.8z"/>
	
		<path clip-path="url(#SVGID_2_)" fill="none" stroke="#D67DBB" stroke-width="15" stroke-linecap="round" stroke-linejoin="round" stroke-miterlimit="10" d="
		M7.5,467.7V308.8c0-27.7,14-52.1,35.3-66.5"/>
	
		<path clip-path="url(#SVGID_2_)" fill="none" stroke="#D67DBB" stroke-width="15" stroke-linecap="round" stroke-linejoin="round" stroke-miterlimit="10" d="
		M146.6,241.8c21.8,14.3,36.2,39,36.2,67.1v158.9"/>
	<path clip-path="url(#SVGID_2_)" fill="none" stroke="#D67DBB" stroke-width="15" stroke-miterlimit="10" d="M132.2,202.4
		c8.6,5.3,14.4,14.8,14.4,25.6v99.9c0,26-21.1,47-47,47h-8.8c-26,0-47-21-47-47V228c0-16.6,13.4-30,30-30h31.9"/>
</g>
</svg>
