<?xml version="1.0" encoding="utf-8"?>
<!-- Generator: Adobe Illustrator 19.1.1, SVG Export Plug-In . SVG Version: 6.00 Build 0)  -->
<svg width="27px" height="20px" version="1.1" id="Layer_1" xmlns="http://www.w3.org/2000/svg" xmlns:xlink="http://www.w3.org/1999/xlink" x="0px" y="0px"
	 viewBox="0 0 80 58" enable-background="new 0 0 80 58" xml:space="preserve">
<g>
	<defs>
		<rect id="SVGID_1_" width="80" height="58"/>
	</defs>
	<clipPath id="SVGID_2_">
		<use xlink:href="#SVGID_1_"  overflow="visible"/>
	</clipPath>
	<path clip-path="url(#SVGID_2_)" fill="#8B69FC" d="M72.2,9.4L56,8c-2.2,0-4-1.8-4-4s-1.8-4-4-4H32c-2.2,0-4,1.8-4,4s-1.8,4-4,4
		L7.8,9.4C3.4,9.7,0,13.4,0,17.8v31.7C0,54.2,3.8,58,8.5,58h63c4.7,0,8.5-3.8,8.5-8.5V17.8C80,13.4,76.6,9.7,72.2,9.4 M40,52
		c-9.9,0-18-8.1-18-18s8.1-18,18-18s18,8.1,18,18S49.9,52,40,52"/>
</g>
</svg>
