<?xml version="1.0" encoding="utf-8"?>
<!-- Generator: Adobe Illustrator 19.1.1, SVG Export Plug-In . SVG Version: 6.00 Build 0)  -->
<svg width="50px" height="35px" version="1.1" id="Layer_1" xmlns="http://www.w3.org/2000/svg" xmlns:xlink="http://www.w3.org/1999/xlink" x="0px" y="0px"
	 viewBox="0 0 841.9 595.3" enable-background="new 0 0 841.9 595.3" xml:space="preserve">
<path fill="none" stroke="#D063A7" stroke-width="1.3" stroke-linecap="round" stroke-linejoin="round" stroke-miterlimit="10" d="
	M116.4,32.1l0-0.7c0-0.9,0.7-1.6,1.6-1.6l21.7,0c0.9,0,1.6,0.7,1.6,1.6l0,12.4c0,0.9-0.7,1.6-1.6,1.6l-0.6,0"/>
<path fill="none" stroke="#D063A7" stroke-width="1.3" stroke-linecap="round" stroke-linejoin="round" stroke-miterlimit="10" d="
	M137.5,47.8l-21.7,0c-0.9,0-1.6-0.7-1.6-1.6l0-12.4c0-0.9,0.7-1.6,1.6-1.6l21.7,0c0.9,0,1.6,0.7,1.6,1.6l0,12.4
	C139.2,47.1,138.4,47.8,137.5,47.8z"/>
<circle fill="none" stroke="#D063A7" stroke-width="1.3" stroke-linecap="round" stroke-linejoin="round" stroke-miterlimit="10" cx="123.6" cy="39.9" r="4.3"/>
<circle fill="none" stroke="#D063A7" stroke-width="1.3" stroke-linecap="round" stroke-linejoin="round" stroke-miterlimit="10" cx="129.7" cy="39.9" r="4.3"/>
</svg>
