<?xml version="1.0" encoding="utf-8"?>
<!-- Generator: Adobe Illustrator 19.1.1, SVG Export Plug-In . SVG Version: 6.00 Build 0)  -->
<svg width="51" height="32" version="1.1" id="Layer_1" xmlns="http://www.w3.org/2000/svg" xmlns:xlink="http://www.w3.org/1999/xlink" x="0px" y="0px"
	 viewBox="0 0 841.9 595.3" enable-background="new 0 0 841.9 595.3" xml:space="preserve">
<rect x="81.5" y="32" fill="none" stroke="#D063A7" stroke-width="1.3" stroke-linecap="round" stroke-linejoin="round" stroke-miterlimit="10" width="28.6" height="16.2"/>
<circle fill="none" stroke="#D063A7" stroke-width="1.3" stroke-linecap="round" stroke-linejoin="round" stroke-miterlimit="10" cx="95.8" cy="40.1" r="5.3"/>
<g>
	<path fill="#D063A7" stroke="#D063A7" stroke-width="0.25" stroke-miterlimit="10" d="M94.8,37.3c0.4-0.1,0.8-0.1,1.4-0.1
		c0.7,0,1.3,0.2,1.6,0.5c0.3,0.3,0.5,0.7,0.5,1.2c0,0.5-0.2,0.9-0.4,1.2c-0.4,0.4-1,0.6-1.7,0.6c-0.2,0-0.4,0-0.6-0.1v2.3h-0.7V37.3
		z M95.5,40.1c0.2,0,0.4,0.1,0.6,0.1c0.9,0,1.4-0.4,1.4-1.2c0-0.8-0.5-1.1-1.3-1.1c-0.3,0-0.6,0-0.7,0.1V40.1z"/>
</g>
<rect x="94" y="40" fill="#D063A7" width="1.8" height="0.8"/>
<rect x="94" y="41.2" fill="#D063A7" width="2.7" height="0.8"/>
</svg>
