<?xml version="1.0" encoding="utf-8"?>
<!-- Generator: Adobe Illustrator 19.1.1, SVG Export Plug-In . SVG Version: 6.00 Build 0)  -->
<svg version="1.1" id="Layer_1" xmlns="http://www.w3.org/2000/svg" xmlns:xlink="http://www.w3.org/1999/xlink" x="0px" y="0px"
	 viewBox="0 0 103.6 102.2" enable-background="new 0 0 103.6 102.2" xml:space="preserve">
<path fill-rule="evenodd" clip-rule="evenodd" fill="#D063A5" d="M53.6,3.1c7.8,0,15.2,1.8,21.7,5c1,0.5,2.1,1,3.1,1.6l-4.6,4.1
	L67,6.8L55.5,17.1l-6.9-7.5L27,29l13.8,15.2L35.4,49L49,64.3L43.6,69l19.4,21.6L74.6,80l10,11.4c-2,1.5-4.1,3-6.5,4.3
	c-8.3,4.7-18.1,7.1-28.5,6.3c-24.1-2-43.4-21.4-45.3-45.5C2,27.5,25.1,3.1,53.6,3.1L53.6,3.1L53.6,3.1z"/>
<polygon fill-rule="evenodd" clip-rule="evenodd" fill="#D063A5" points="44.6,49.6 56.4,38.9 67,50.7 55.2,61.3 44.6,49.6 
	44.6,49.6 "/>
<polygon fill-rule="evenodd" clip-rule="evenodd" fill="#D063A5" points="53,69.9 64.8,59.3 75.4,71.1 63.6,81.7 53,69.9 53,69.9 
	"/>
<polygon fill-rule="evenodd" clip-rule="evenodd" fill="#D063A5" points="36.2,29.4 48,18.8 58.6,30.6 46.8,41.2 36.2,29.4 
	36.2,29.4 "/>
<polygon fill-rule="evenodd" clip-rule="evenodd" fill="#D063A5" points="57.8,23.7 66.6,15.8 74.6,24.6 65.8,32.6 57.8,23.7 
	57.8,23.7 "/>
<polygon fill-rule="evenodd" clip-rule="evenodd" fill="#D063A5" points="73.5,60.2 82.4,52.2 90.3,61 81.5,69 73.5,60.2 73.5,60.2 
	"/>
<polygon fill-rule="evenodd" clip-rule="evenodd" fill="#D063A5" points="81.3,78 90.1,70.1 98.1,78.9 89.2,86.9 81.3,78 81.3,78 
	"/>
<polygon fill-rule="evenodd" clip-rule="evenodd" fill="#D063A5" points="84.8,37.1 90.7,31.8 96,37.7 90.2,43 84.8,37.1 84.8,37.1 
	"/>
<polygon fill-rule="evenodd" clip-rule="evenodd" fill="#D063A5" points="77.3,19.6 83.2,14.3 88.5,20.2 82.6,25.5 77.3,19.6 
	77.3,19.6 "/>
<polygon fill-rule="evenodd" clip-rule="evenodd" fill="#D063A5" points="92.4,54.6 98.3,49.3 103.6,55.2 97.7,60.5 92.4,54.6 
	92.4,54.6 "/>
<polygon fill-rule="evenodd" clip-rule="evenodd" fill="#D063A5" points="66,41.5 74.8,33.5 82.7,42.4 73.9,50.3 66,41.5 66,41.5 
	"/>
</svg>
