<?xml version="1.0" encoding="utf-8"?>
<!-- Generator: Adobe Illustrator 19.1.1, SVG Export Plug-In . SVG Version: 6.00 Build 0)  -->
<svg version="1.1" id="Layer_1" xmlns="http://www.w3.org/2000/svg" xmlns:xlink="http://www.w3.org/1999/xlink" x="0px" y="0px"
	 viewBox="-406 580.6 28.7 29.9" enable-background="new -406 580.6 28.7 29.9" xml:space="preserve">
<g>
	<g>
		<defs>
			<rect id="SVGID_1_" x="-406" y="580.6" width="28.7" height="29.9"/>
		</defs>
		<clipPath id="SVGID_2_">
			<use xlink:href="#SVGID_1_"  overflow="visible"/>
		</clipPath>
		<path clip-path="url(#SVGID_2_)" fill="#D461AC" d="M-382.2,601.3c-0.3-1.2-0.8-2.1-1.6-2.7c-0.3-0.3-0.6-0.5-0.9-0.7
			c-0.2-0.1-0.3-0.2-0.5-0.3c-0.4-0.1-0.9-0.3-1.6-0.3c0.3-0.2,0.8-0.2,1.3-0.2c0.4,0,0.7,0.2,1.1,0.3c0.3,0.2,0.6,0.3,0.9,0.5
			c0.7-2.1,0.4-5-0.4-6.9c-0.8-2-1.9-3.6-3.3-4.9c-1.4-1.3-3.1-2.3-5.4-2.8c-1.1-0.2-2.5-0.2-3.6,0c-1.1,0.5-2,0.9-2.8,1.5
			c-0.7,0.7-1.4,1.3-1.9,2.2c-0.1,0.2-0.2,0.5-0.4,0.7c-0.1,0.2-0.2,0.5-0.3,0.7c-0.2,0.5-0.4,1-0.5,1.6c-0.2,1-0.2,2.5-0.1,3.6
			c0.1,1.2,0.5,2.2,0.9,3.2c0.2,0.5,0.4,0.9,0.7,1.4l0.9,1.2c0.7,0.7,1.4,1.4,2.2,1.9c1.7,1.1,3.5,1.9,6.1,2
			c0.1-0.1-0.1-0.3-0.1-0.5s-0.1-0.3-0.1-0.5v-1.1c0.1,0,0.1,0.2,0.2,0.2c0.1,0.1,0.1,0.2,0.2,0.2c0.1,0.2,0.2,0.3,0.3,0.5
			c0.2,0.3,0.4,0.6,0.7,0.7c0.2,0.2,0.6,0.4,0.9,0.6c0.3,0.2,0.6,0.4,1,0.5c0.6,0.3,1.5,0.5,2.4,0.6c0.9,0.1,1.7,0.3,2.5,0.5
			c0.7,0.3,1.5,0.5,2.1,0.9l0.9,0.6c0.1,0.1,0.3,0.2,0.4,0.3c0.2,0.1,0.2,0.2,0.4,0.3c0.5,0.5,1,1,1.4,1.5c0.2,0.3,0.4,0.6,0.5,0.9
			c0.1,0.1,0.2,0.3,0.3,0.5c0,0.2,0.2,0.4,0,0.5c-0.2,0-0.2-0.2-0.3-0.3c-0.1-0.1-0.2-0.2-0.2-0.4c-0.4-0.4-0.7-0.8-1.1-1.2
			c-0.4-0.4-0.8-0.7-1.3-1c-0.9-0.6-1.9-1.1-3.2-1.5c-1.2-0.3-2.5-0.5-4.1-0.4c-0.7,0.1-1.3,0.2-1.9,0.4s-1.3,0.2-2,0.3
			c-2.6,0.2-5.6-0.5-7.6-1.4c-1.1-0.5-2-1.1-2.8-1.8c-0.5-0.3-0.8-0.7-1.2-1.1c-0.3-0.4-0.7-0.8-1-1.3c-0.3-0.4-0.6-1-0.8-1.5
			c-0.2-0.6-0.5-1.1-0.6-1.7c-0.2-0.6-0.3-1.2-0.4-1.9c0-0.2-0.1-0.6-0.1-0.9v-0.1c0-0.3-0.1-0.7,0-0.9c0-0.6,0.1-1.4,0.2-2
			c0.1-0.6,0.3-1.2,0.5-1.8c0.2-0.6,0.4-1.1,0.7-1.6c0.1-0.2,0.2-0.5,0.4-0.8c0.1-0.3,0.3-0.4,0.4-0.7c0.1,0,0.1-0.2,0.2-0.3
			c0-0.1,0.2-0.2,0.2-0.4l0.3-0.3l0.3-0.3c0.4-0.4,0.7-0.8,1.1-1.2c0.4-0.3,0.9-0.7,1.3-1c0.3-0.1,0.5-0.3,0.7-0.5
			c0.2-0.2,0.5-0.3,0.7-0.5c0.5-0.2,1-0.6,1.6-0.8c0.5-0.3,1.1-0.4,1.7-0.6c1.2-0.2,2.4-0.4,4-0.4c0.1,0,0.1-0.1,0.1,0
			c2.9,0.1,5.1,1,6.9,2.2c1.8,1.2,3.2,2.8,4.2,4.8s1.5,4.7,1.1,7.5c-0.2,1.3-0.6,2.4-1.1,3.5c-0.3,0.5-0.5,1-0.8,1.5
			c-0.1,0.2-0.3,0.5-0.5,0.7c-0.1,0.1-0.1,0.2-0.2,0.3C-382.1,601.1-382.1,601.2-382.2,601.3C-382.2,601.3-382.2,601.4-382.2,601.3"
			/>
	</g>
	<g>
		<defs>
			<rect id="SVGID_3_" x="-406" y="580.6" width="28.7" height="29.9"/>
		</defs>
		<clipPath id="SVGID_4_">
			<use xlink:href="#SVGID_3_"  overflow="visible"/>
		</clipPath>
		<path clip-path="url(#SVGID_4_)" fill="#F78F21" d="M-383,602.2c-0.4-0.1-0.4-0.6-0.6-1c0-0.1-0.1-0.3,0-0.5h0.1
			c0.1-0.1,0.2,0,0.3,0.1c0.2,0.2,0.3,0.5,0.4,0.8C-382.9,601.8-382.8,602.1-383,602.2 M-385.9,601.6
			C-385.9,601.6-385.8,601.6-385.9,601.6c0.6,0.1,0.9,0.5,0.9,1.1c-0.1,0.3-0.2,0.5-0.5,0.6c-0.8,0-1.2-0.7-0.9-1.4
			C-386.3,601.7-386.2,601.6-385.9,601.6"/>
	</g>
</g>
</svg>
