<?xml version="1.0" encoding="utf-8"?>
<!-- Generator: Adobe Illustrator 19.1.1, SVG Export Plug-In . SVG Version: 6.00 Build 0)  -->
<svg width="12" height="16" version="1.1" id="Layer_1" xmlns="http://www.w3.org/2000/svg" xmlns:xlink="http://www.w3.org/1999/xlink" x="0px" y="0px"
	 viewBox="0 0 261.5 354.2" enable-background="new 0 0 261.5 354.2" xml:space="preserve">
<g>
	<defs>
		<rect id="SVGID_1_" width="261.5" height="354.2"/>
	</defs>
	<clipPath id="SVGID_2_">
		<use xlink:href="#SVGID_1_"  overflow="visible"/>
	</clipPath>
	<path clip-path="url(#SVGID_2_)" fill="#FFFFFF" d="M245.6,61.3C230.9,57,223.2,71.8,218,81.9l-28.3,65
		c-4.6-6.1-11.7-10.4-20.4-10.4c-8.5,0-15.7,3.6-20.5,9.6c-5.3-9.2-14.2-15.4-23.8-15.4c-8.3,0-15.8,3.5-21.1,9.1L90,31.4
		C87.3,6.7,72.7,3,64.3,3C48.9,3,37.8,15.2,37.8,32.4L47.7,171l0.9,11.9l2.8,30c0.2,3.2,3,5.6,6.2,5.4c3.2-0.2,5.6-3,5.4-6.2
		L49.4,32c0-8.7,4.6-17.4,14.9-17.4c3,0,12.2,0,14.2,18.2l17.4,133.5c0.4,3,3.1,5.1,6,5c3-0.1,5.4-2.5,5.6-5.5c0,0,0.2-4,0.2-6.1
		c0-9.6,7.8-17.4,17.4-17.4c8.9,0,17.4,11.3,17.4,23.2c0,3.2,2.6,5.8,5.8,5.8c3.2,0,5.8-2.6,5.8-5.8c0-8.4,4.8-17.4,15.2-17.4
		c8.5,0,13.9,8.2,14.5,14.2c0.3,2.6,2.3,4.7,4.9,5.1c2.6,0.4,5.1-1,6.2-3.4l33.5-77c7-13.6,10.2-15.6,13.9-14.5
		c2.6,0.8,5.9,1.7,4,10.8c-0.2,0.8-17,75.7-22.7,110.3c-1.8,10.9-3,24.1-4.4,39.5c-2.9,32.1-6.6,71.9-17.4,106.5H71.5
		c-6.4-28-21.3-62.1-44.2-101.4c-2.5-4.3-5-8.4-7.4-12.5c-6.3-10.4-7.1-24.1-1.8-33.5c2.3-4,6.6-8.8,14.7-9.3c0.4,0,20.1,0,20.6,0
		c3.2,0,5.8-2.6,5.8-5.8c0-3.2-2.6-5.8-5.8-5.8c-0.7,0-20.7,0-21.4,0.1c-10.3,0.6-18.8,6-24,15.2c-7.3,13-6.5,31.2,2,45.2
		c2.4,4,4.9,8.1,7.3,12.3c23.5,40.4,38.3,74.9,43.8,102.5c0.5,2.7,2.9,4.7,5.7,4.7h139.3c2.5,0,4.7-1.6,5.5-4
		c12.3-36.8,16.2-79.1,19.3-113.1c1.4-15.1,2.6-28.2,4.3-38.7c5.6-34.3,22.4-108.9,22.6-109.8C261,69.4,253,63.4,245.6,61.3"/>
	<path clip-path="url(#SVGID_2_)" fill="none" stroke="#FFFFFF" stroke-width="6" stroke-miterlimit="10" d="M245.6,61.3
		C230.9,57,223.2,71.8,218,81.9l-28.3,65c-4.6-6.1-11.7-10.4-20.4-10.4c-8.5,0-15.7,3.6-20.5,9.6c-5.3-9.2-14.2-15.4-23.8-15.4
		c-8.3,0-15.8,3.5-21.1,9.1L90,31.4C87.3,6.7,72.7,3,64.3,3C48.9,3,37.8,15.2,37.8,32.4L47.7,171l0.9,11.9l2.8,30
		c0.2,3.2,3,5.6,6.2,5.4c3.2-0.2,5.6-3,5.4-6.2L49.4,32c0-8.7,4.6-17.4,14.9-17.4c3,0,12.2,0,14.2,18.2l17.4,133.5
		c0.4,3,3.1,5.1,6,5c3-0.1,5.4-2.5,5.6-5.5c0,0,0.2-4,0.2-6.1c0-9.6,7.8-17.4,17.4-17.4c8.9,0,17.4,11.3,17.4,23.2
		c0,3.2,2.6,5.8,5.8,5.8c3.2,0,5.8-2.6,5.8-5.8c0-8.4,4.8-17.4,15.2-17.4c8.5,0,13.9,8.2,14.5,14.2c0.3,2.6,2.3,4.7,4.9,5.1
		c2.6,0.4,5.1-1,6.2-3.4l33.5-77c7-13.6,10.2-15.6,13.9-14.5c2.6,0.8,5.9,1.7,4,10.8c-0.2,0.8-17,75.7-22.7,110.3
		c-1.8,10.9-3,24.1-4.4,39.5c-2.9,32.1-6.6,71.9-17.4,106.5H71.5c-6.4-28-21.3-62.1-44.2-101.4c-2.5-4.3-5-8.4-7.4-12.5
		c-6.3-10.4-7.1-24.1-1.8-33.5c2.3-4,6.6-8.8,14.7-9.3c0.4,0,20.1,0,20.6,0c3.2,0,5.8-2.6,5.8-5.8c0-3.2-2.6-5.8-5.8-5.8
		c-0.7,0-20.7,0-21.4,0.1c-10.3,0.6-18.8,6-24,15.2c-7.3,13-6.5,31.2,2,45.2c2.4,4,4.9,8.1,7.3,12.3c23.5,40.4,38.3,74.9,43.8,102.5
		c0.5,2.7,2.9,4.7,5.7,4.7h139.3c2.5,0,4.7-1.6,5.5-4c12.3-36.8,16.2-79.1,19.3-113.1c1.4-15.1,2.6-28.2,4.3-38.7
		c5.6-34.3,22.4-108.9,22.6-109.8C261,69.4,253,63.4,245.6,61.3z"/>
</g>
</svg>
