<?xml version="1.0" encoding="utf-8"?>
<!-- Generator: Adobe Illustrator 19.1.1, SVG Export Plug-In . SVG Version: 6.00 Build 0)  -->
<svg version="1.1" id="Layer_1" xmlns="http://www.w3.org/2000/svg" xmlns:xlink="http://www.w3.org/1999/xlink" x="0px" y="0px"
	 viewBox="0 0 9.9 11.1" enable-background="new 0 0 9.9 11.1" xml:space="preserve">
<g>
	<defs>
		<rect id="SVGID_1_" y="0" width="9.9" height="11.1"/>
	</defs>
	<clipPath id="SVGID_2_">
		<use xlink:href="#SVGID_1_"  overflow="visible"/>
	</clipPath>
	<path clip-path="url(#SVGID_2_)" fill="#BFBFBF" d="M8.8,4.1v1.8c0,2.3-2.9,3.2-2.9,3.2L4.1,9.9H2.3V9.5c0,0,2.6-1.1,4.1-1.8
		c1.4-0.6,1.5-2.4,1.5-2.4V1.1c0-1.9-2.2-0.7-2.2-0.7L0,4v5.2l1,1.9h7.6c1,0,1.3-1.2,1.3-1.2V4.1H8.8z M5.4,3.2
		c0.4,0,0.7,0.4,0.7,0.9c-0.1,0.6-0.4,1-0.7,1c-0.4,0-1-0.4-1-0.9C4.3,3.6,5,3.2,5.4,3.2"/>
</g>
</svg>
