<?xml version="1.0" encoding="utf-8"?>
<!-- Generator: Adobe Illustrator 19.1.1, SVG Export Plug-In . SVG Version: 6.00 Build 0)  -->
<svg version="1.1" id="Layer_1" xmlns="http://www.w3.org/2000/svg" xmlns:xlink="http://www.w3.org/1999/xlink" x="0px" y="0px"
	 viewBox="0 0 233.1 231.6" enable-background="new 0 0 233.1 231.6" xml:space="preserve">
<g>
	<defs>
		<rect id="SVGID_1_" width="233.1" height="231.6"/>
	</defs>
	<clipPath id="SVGID_2_">
		<use xlink:href="#SVGID_1_"  overflow="visible"/>
	</clipPath>
	<path clip-path="url(#SVGID_2_)" fill="#D25578" stroke="#FFFFFF" stroke-miterlimit="10" d="M11.3,75.5c-8.2,0.5-8.7,3-10.9,9.6
		C0.2,85.9,0,86.6,0,87.5c0,36.8,0,73.5,0.6,110.3c0.2,11.2,17.6,10.1,25.2,10.9c18.1,2.1,35.3,8.2,53,12.2
		c18.7,4.1,37.6,7.4,56.5,10.5c0.4,0.1,0.7,0.1,1.1,0.1c0.6,0.1,1.2,0.2,1.9,0.2c14.5-0.7,28.9-2.6,43.3-4.9
		c0.9-0.2,1.7-0.5,2.3-0.8c8.3-1.7,16.8-5.6,21.3-13.2c4-6.6,4.6-13.9,3.7-21.2c11.2-9.8,15.9-22.8,12.6-37.3
		c14.8-15.6,15.7-36.2,1.5-52c9-15.2,8.7-32.1-2.7-46.5c-0.7-0.9-1.6-1.6-2.4-1.9c-0.7-0.5-1.5-0.8-2.4-1
		c-22.5-4.8-45.4-2.8-64.3,11.2c-2,1.5-2.9,3.5-3,5.5c-0.3,0.7-0.4,1.5-0.5,2.3c0,0.5,0,0.7,0,0.6c0,0.3-0.1,0.5-0.1,0.8
		c-0.2,1.3-0.4,2.5-0.4,3.8c-1.2,0-2.5-0.1-3.7-0.2c8.6-29.5,5-89.8-39.6-74.2c-3.5,1.2-4.9,4.2-4.8,7.1c-0.2,0.6-0.3,1.3-0.4,2
		c-0.5,18.1-4.1,35.3-14.2,50.7C72,81.2,51.5,79.6,31.2,77.4C24.6,76.7,17.9,75.1,11.3,75.5 M45,197.4c-0.3-0.1-0.6-0.1-0.9-0.2
		c4.2-34.8,7.4-69.6,4.7-104.7c43.5,1.9,61.7-37.7,63.6-77.8c26.7-4.3,22.4,42.7,16.8,60c-0.8-0.2-1.7-0.3-2.6-0.5
		c-8.8-2-12.5,11.5-3.7,13.5c18.5,4.1,37,4.1,55.6,0.6c8.9-1.7,5.1-15.2-3.7-13.5c-4.6,0.9-9.3,1.5-13.9,1.8c0-0.3,0-0.4,0-0.3
		c0-0.3,0.1-0.5,0.1-0.8c0.1-0.6,0.2-1.2,0.2-1.8c14.9-9.6,31.8-11.3,49.2-7.7c8,10.5,5.1,22.4-2,32.5c-1.2,1.8-1.4,3.5-1.1,5
		c-0.2,1.8,0.4,3.6,2.2,5.2c12.5,11.5,12.4,25.2,0.4,36.9c-2.8,1.3-4.6,4.1-3.4,7.8c3.6,11,1.7,21-7.9,28.3
		c-0.3,0.2-0.5,0.5-0.8,0.7c-2.6,1.4-4.4,4.1-3.6,7.7c1.1,5,1.7,10.9-1.4,15.3c-3.2,4.6-8.9,6-14.1,7c-0.8,0.1-1.4,0.4-2,0.7
		c-12.8,2.1-25.7,3.7-38.7,4.3c-0.1,0-0.3,0-0.4,0.1C106.6,212.4,75.4,207,45,197.4 M14.5,192.4c-0.5-34-0.5-68-0.5-102
		c7,0.1,13.9,0.7,20.8,1.5c2.7,34-0.2,67.8-4.2,101.6C25.3,193.1,19.9,192.7,14.5,192.4"/>
	<use xlink:href="#SVGID_1_"  overflow="visible" fill="none" stroke="#FFFFFF" stroke-miterlimit="10"/>
</g>
</svg>
