<?xml version="1.0" encoding="utf-8"?>
<!-- Generator: Adobe Illustrator 19.1.1, SVG Export Plug-In . SVG Version: 6.00 Build 0)  -->
<svg version="1.1" id="Layer_1" xmlns="http://www.w3.org/2000/svg" xmlns:xlink="http://www.w3.org/1999/xlink" x="0px" y="0px"
	 viewBox="0 0 50.1 68.3" enable-background="new 0 0 50.1 68.3" xml:space="preserve">
<g>
	<defs>
		<rect id="SVGID_1_" y="0" width="50.1" height="68.3"/>
	</defs>
	<clipPath id="SVGID_2_">
		<use xlink:href="#SVGID_1_"  overflow="visible"/>
	</clipPath>
	<path clip-path="url(#SVGID_2_)" fill="#858585" d="M47.6,11.4c-2.9-0.8-4.4,2.1-5.4,4.1l-5.5,12.7c-0.9-1.2-2.3-2-4-2
		c-1.7,0-3.1,0.7-4,1.9c-1-1.8-2.8-3-4.7-3c-1.6,0-3.1,0.7-4.1,1.8L17.1,5.6C16.5,0.7,13.7,0,12,0C9,0,6.8,2.4,6.8,5.8l1.9,27.2
		l0.2,2.3l0.2,2.4c0,0.6,0.6,1.1,1.2,1c0.6,0,1.1-0.6,1.1-1.2L9.1,5.7C9.1,4,10,2.3,12,2.3c0.6,0,2.4,0,2.8,3.6L18.2,32
		c0.1,0.6,0.6,1,1.2,1c0.6,0,1.1-0.5,1.1-1.1c0,0,0-0.8,0-1.2c0-1.9,1.5-3.4,3.4-3.4c1.8,0,3.4,2.2,3.4,4.6c0,0.6,0.5,1.1,1.1,1.1
		s1.1-0.5,1.1-1.1c0-1.6,0.9-3.4,3-3.4c1.7,0,2.7,1.6,2.9,2.8c0.1,0.5,0.4,0.9,1,1c0.5,0.1,1-0.2,1.2-0.7l6.6-15.1
		c1.4-2.7,2-3.1,2.7-2.8c0.5,0.1,1.2,0.3,0.8,2.1c0,0.1-3.3,14.9-4.4,21.6c-0.3,2.1-0.6,4.7-0.9,7.7C41.8,51.4,41.1,59.2,39,66H13.4
		c-1.3-5.5-4.2-12.2-8.7-19.9c-0.5-0.8-1-1.7-1.5-2.4c-1.2-2-1.4-4.7-0.4-6.6c0.4-0.8,1.3-1.7,2.9-1.8c0.1,0,0.2,0,0.2,0
		c0.6,0,1.1-0.5,1.1-1.1c0-0.6-0.5-1.1-1.1-1.1c-0.1,0-0.3,0-0.4,0c-2,0.1-3.7,1.2-4.7,3c-1.4,2.6-1.3,6.1,0.4,8.9
		c0.5,0.8,1,1.6,1.4,2.4c4.6,7.9,7.5,14.7,8.6,20.1c0.1,0.5,0.6,0.9,1.1,0.9h27.3c0.5,0,0.9-0.3,1.1-0.8c2.4-7.2,3.2-15.5,3.8-22.2
		c0.3-3,0.5-5.5,0.8-7.6c1.1-6.7,4.4-21.4,4.4-21.5C50.6,13,49,11.8,47.6,11.4"/>
</g>
</svg>
