<?xml version="1.0" encoding="utf-8"?>
<!-- Generator: Adobe Illustrator 19.1.1, SVG Export Plug-In . SVG Version: 6.00 Build 0)  -->
<svg width="43" height="34" version="1.1" id="Layer_1" xmlns="http://www.w3.org/2000/svg" xmlns:xlink="http://www.w3.org/1999/xlink" x="0px" y="0px"
	 viewBox="0 0 333.9 323.1" enable-background="new 0 0 333.9 323.1" xml:space="preserve">
<g>
	<defs>
		<rect id="SVGID_1_" width="333.9" height="323.1"/>
	</defs>
	<clipPath id="SVGID_2_">
		<use xlink:href="#SVGID_1_"  overflow="visible"/>
	</clipPath>
	<path clip-path="url(#SVGID_2_)" fill="#D25578" d="M329,152.3c-3.7-1-6.8,1.3-8.1,4.6c-2.2,5.7-10.3,9.1-16.1,9.9
		c-8.8,1.2-17.4-2.7-25.2-6.3c-9.3-4.3-18.8-8.4-29.2-8.3c-10.5,0.1-20.7,4.3-29.2,10.1c-9.6,6.6-17.3,15.3-24.8,24
		c-2.3,2.7-2.6,6.6,0,9.3c2.4,2.4,6.9,2.7,9.3,0c12.1-14.1,28.1-32.7,48.9-30.2c9.8,1.2,18.6,6.7,27.7,10.4c9.3,3.8,19.4,5.5,29.3,3
		c9.7-2.6,18.5-8.7,22.2-18.4C334.9,157,332.2,153.1,329,152.3"/>
	<path clip-path="url(#SVGID_2_)" fill="#D25578" d="M134.7,83.1c6.2-8.6,12.8-17.7,14.7-28.4c1.8-10.3-0.8-20.7-6.6-29.4
		C136.1,15.3,126.5,8.1,117,1c-2.8-2.1-7.3-0.5-9,2.3c-2,3.3-0.5,6.8,2.3,9c14.6,10.9,32.9,26.2,24.1,46.5
		c-7.8,18.1-28.1,32.6-25.6,54.3c1.2,10.5,7.4,19.9,18,22.7c8.2,2.2,11.6-10.5,3.5-12.6c-6.6-1.7-9.2-9-8.5-15.3
		C122.9,98.7,129.4,90.4,134.7,83.1"/>
	<path clip-path="url(#SVGID_2_)" fill="#D25578" d="M187.4,90c0.6,7.2,2.6,14.3,6.1,20.6c4.9,8.7,14.1,16,24.3,11.1
		c8.3-3.9,11.9-14.1,10.8-22.7c-1.1-8.7-6-16.6-13.3-21.4c-4.1-2.7-8.6-4.1-13.1-4.4c2.2-7.4,6.4-14.2,12.6-18.9
		c2.8-2.1,4.3-5.6,2.3-9c-1.6-2.8-6.1-4.5-9-2.3c-10.4,8-17.4,19.5-19.9,32.2c-8.5,3.1-16.1,9.4-20.5,17.2
		c-11.8,21-4.3,45.4,7.5,64.5c4.4,7.1,15.8,0.6,11.3-6.6c-7.7-12.4-14.2-27.3-10.9-42.2C177.3,100.8,181.5,94.1,187.4,90 M214.1,108
		c-3.6,5.1-7.3-0.5-9.3-4c-2.7-4.9-4.2-10.4-4.4-16c0-0.6,0-1.2,0-1.7c0.3,0,0.6,0,1,0.1C210.9,87.2,220.2,99.3,214.1,108"/>
	<path clip-path="url(#SVGID_2_)" fill="#D25578" d="M6.5,323.1c1,0,2-0.2,2.9-0.7l173.6-86.7c1.9-0.9,3.2-2.7,3.5-4.8
		c0.3-2.1-0.3-4.2-1.8-5.7l-86.9-86.9c-1.5-1.5-3.6-2.2-5.7-1.8c-2.1,0.3-3.9,1.7-4.8,3.5l-7.8,15.7l-78.9,158
		c-1.3,2.5-0.8,5.6,1.2,7.6C3.2,322.4,4.8,323.1,6.5,323.1 M95,154l74.1,74.1L129.2,248L118,220.8c-1.4-3.3-5.2-4.9-8.5-3.6
		c-3.3,1.4-4.9,5.2-3.6,8.5l11.5,28.1L71,277l-12.6-49.7l26.4-52.9l7.3,17.7c1,2.5,3.5,4.1,6.1,4.1c0.8,0,1.7-0.2,2.5-0.5
		c3.3-1.4,4.9-5.2,3.6-8.5l-11.6-28.3L95,154z M49.4,245.3L59,283l-37.8,18.9L49.4,245.3z"/>
	<path clip-path="url(#SVGID_2_)" fill="#D25578" d="M326.2,51.2c0-1.7-0.7-3.4-1.9-4.6L298,20.2c-1.2-1.2-2.9-1.9-4.6-1.9
		c-1.7,0-3.4,0.7-4.6,1.9l-26.3,26.3c-2.6,2.6-2.6,6.7,0,9.3l26.3,26.3c1.3,1.3,3,1.9,4.6,1.9c1.7,0,3.4-0.6,4.6-1.9l26.3-26.3
		C325.5,54.6,326.2,52.9,326.2,51.2 M293.3,68.3l-17.1-17.1l17.1-17.1l17.1,17.1L293.3,68.3z"/>
	<path clip-path="url(#SVGID_2_)" fill="#D25578" d="M104.5,213.2c8.4,0,8.4-13.1,0-13.1C96.1,200.1,96.1,213.2,104.5,213.2"/>
</g>
</svg>
