<?xml version="1.0" encoding="utf-8"?>
<!-- Generator: Adobe Illustrator 19.1.1, SVG Export Plug-In . SVG Version: 6.00 Build 0)  -->
<svg version="1.1" id="Layer_1" xmlns="http://www.w3.org/2000/svg" xmlns:xlink="http://www.w3.org/1999/xlink" x="0px" y="0px"
	 viewBox="0 0 10.6 10.6" enable-background="new 0 0 10.6 10.6" xml:space="preserve">
<g>
	<defs>
		<rect id="SVGID_1_" y="0" width="10.6" height="10.6"/>
	</defs>
	<clipPath id="SVGID_2_">
		<use xlink:href="#SVGID_1_"  overflow="visible"/>
	</clipPath>
	<path clip-path="url(#SVGID_2_)" fill="#BBBBBB" d="M6.3,9.3L4.2,7l0.6-0.5L3.4,4.9L4,4.4L2.5,2.8l2.3-2.1l0.7,0.8l1.2-1.1l0.7,0.8
		l0.5-0.4C7.8,0.6,7.7,0.6,7.6,0.5C6.9,0.2,6.1,0,5.3,0C2.4,0,0,2.4,0,5.3s2.4,5.3,5.3,5.3c0.9,0,1.8-0.3,2.6-0.7
		c0.2-0.2,0.5-0.3,0.7-0.5L7.5,8.2L6.3,9.3z M6.7,5.1L5.6,3.8L4.3,4.9l1.1,1.3L6.7,5.1z M7.6,7.2L6.5,6L5.2,7.1l1.1,1.3L7.6,7.2z
		 M3.4,2.8L4.6,4l1.3-1.1L4.7,1.7L3.4,2.8z M5.7,2.2l0.9,0.9l0.9-0.8l-0.8-1L5.7,2.2z M9.2,6.2l-0.9-1L7.4,6.1L8.3,7L9.2,6.2z
		 M8.2,8L9,8.9l0.9-0.8l-0.7-1L8.2,8z M9.2,4.2l0.6-0.6L9.2,3L8.6,3.6L9.2,4.2z M8.4,2.4L9,1.8L8.4,1.2L7.8,1.8L8.4,2.4z M10,6.1
		l0.6-0.6L10,4.9L9.4,5.5L10,6.1z M8.4,4.2l-0.9-1L6.6,4.1L7.4,5L8.4,4.2z"/>
</g>
</svg>
