<?xml version="1.0" encoding="utf-8"?>
<!-- Generator: Adobe Illustrator 19.1.1, SVG Export Plug-In . SVG Version: 6.00 Build 0)  -->
<svg version="1.1" id="Слой_1" xmlns="http://www.w3.org/2000/svg" xmlns:xlink="http://www.w3.org/1999/xlink" x="0px" y="0px"
	 viewBox="0 298.3 50.3 70.1" enable-background="new 0 298.3 50.3 70.1" xml:space="preserve">
<path d="M47.7,309.7c-2.9-0.8-4.4,2.1-5.4,4.1L36,328.1c-0.9-1.2-2.3-2-4-2s-3.1,0.7-4,1.9c-1-1.8-2.8-3-4.7-3
	c-1.6,0-3.1,0.7-4.1,1.8l-3.5-22.9c-0.5-4.8-3-5.8-4.9-5.6c-3,0.3-4.2,2.4-4.1,5.8l2.5,28.7l0.2,2.3l0.2,2.4c0,0.6,0.6,1.1,1.2,1
	c0.6,0,1.1-0.6,1.1-1.2L9.1,304c0-1.7,0.3-3.3,1.9-3.4c0.6-0.1,2.3,0,2.7,3.6l4.2,27.8c0.1,0.6,0.6,1,1.2,1c0.6,0,1.1-0.5,1.1-1.1
	l0-1.1c0-1.7,1.2-3.3,2.9-3.5c3-0.4,3.9,2.9,3.9,5.4c0,0.6,0.5,1.1,1.1,1.1s1.1-0.5,1.1-1.1c0-1.6,0.3-4.3,3-4.3
	c1.7,0,2.7,1.6,2.9,2.8c0.1,0.5,0.4,0.9,1,1c0.5,0.1,1-0.2,1.2-0.7l7.3-16.6c1.4-2.7,2-3.1,2.7-2.8c0.5,0.1,1.2,0.3,0.8,2.1
	c0,0.1-4.1,16.4-5.2,23.2c-0.3,2.1-0.6,4.7-0.9,7.7c-0.6,6.3-2.6,14.1-4.7,20.9h-21c-1.3-5.5-6.9-12.6-11.4-20.3
	c-0.5-0.8-1-1.6-1.5-2.4c-1.2-2-1.4-4.7-0.4-6.6c0.4-0.8,0.8-1.4,2.4-1.4c0.1,0,0.2,0,0.2,0c0.6,0,1.1-0.5,1.1-1.1s-0.5-1.1-1.1-1.1
	c-0.1,0-0.3,0-0.4,0c-2,0.1-3.2,0.8-4.2,2.6c-1.4,2.6-1.3,6.1,0.4,8.9c0.5,0.8,1,1.6,1.4,2.4c4.6,7.9,10.2,15.1,11.3,20.5
	c0.1,0.5,0.6,0.9,1.1,0.9H38c0.5,0,0.9-0.3,1.1-0.8c2.4-7.2,4.5-15.5,5.1-22.2c0.3-3,0.5-5.5,0.8-7.6c1.1-6.7,5.1-22.9,5.2-23.1
	C50.7,311.3,49.1,310.1,47.7,309.7z"/>
</svg>
