<?xml version="1.0" encoding="utf-8"?>
<!-- Generator: Adobe Illustrator 19.1.1, SVG Export Plug-In . SVG Version: 6.00 Build 0)  -->
<svg version="1.1" id="Layer_1" xmlns="http://www.w3.org/2000/svg" xmlns:xlink="http://www.w3.org/1999/xlink" x="0px" y="0px"
	 viewBox="0 0 23.4 23.4" enable-background="new 0 0 23.4 23.4" xml:space="preserve">
<g>
	<defs>
		<rect id="SVGID_1_" y="0" width="23.4" height="23.4"/>
	</defs>
	<clipPath id="SVGID_2_">
		<use xlink:href="#SVGID_1_"  overflow="visible"/>
	</clipPath>
	<path clip-path="url(#SVGID_2_)" fill="none" stroke="#F8F8F8" stroke-width="2" stroke-miterlimit="10" d="M17.7,22.4H5.8
		c-2.6,0-4.8-2.1-4.8-4.8V5.8C1,3.1,3.1,1,5.8,1h11.9c2.6,0,4.8,2.1,4.8,4.8v11.9C22.4,20.3,20.3,22.4,17.7,22.4z"/>
	
		<circle clip-path="url(#SVGID_2_)" fill="none" stroke="#F8F8F8" stroke-width="2" stroke-miterlimit="10" cx="11.7" cy="11.7" r="4.8"/>
	<path clip-path="url(#SVGID_2_)" stroke="#F8F8F8" stroke-miterlimit="10" d="M19.2,5.1c0,0.6-0.5,1.1-1.1,1.1
		c-0.6,0-1.1-0.5-1.1-1.1C17,4.5,17.5,4,18.1,4C18.7,4,19.2,4.5,19.2,5.1"/>
</g>
</svg>
