<?xml version="1.0" encoding="utf-8"?>
<!-- Generator: Adobe Illustrator 19.1.1, SVG Export Plug-In . SVG Version: 6.00 Build 0)  -->
<svg version="1.1" id="Layer_1" xmlns="http://www.w3.org/2000/svg" xmlns:xlink="http://www.w3.org/1999/xlink" x="0px" y="0px"
	 viewBox="0 0 11 10.6" enable-background="new 0 0 11 10.6" xml:space="preserve">
<g>
	<defs>
		<rect id="SVGID_1_" y="0" width="11" height="10.6"/>
	</defs>
	<clipPath id="SVGID_2_">
		<use xlink:href="#SVGID_1_"  overflow="visible"/>
	</clipPath>
	<path clip-path="url(#SVGID_2_)" fill="#BFBFBF" d="M10,1.9C9.8,1.6,9.5,1.3,9.2,1.1L4.4,4.3L4,4.8L0.4,3.1
		C0.3,3.5,0.2,3.8,0.1,4.2l3.9,2L10,1.9z M10.5,2.7L4.2,7.2v0.1L0,5.2c0,3,2.5,5.4,5.5,5.4S11,8.1,11,5.1C11,4.2,10.8,3.4,10.5,2.7
		 M3.7,3.8l4.8-3.2C8.2,0.3,7.8,0.1,7.4,0L3.7,2.5L1.5,1.3C1.2,1.6,1,2,0.8,2.4L3.7,3.8z"/>
</g>
</svg>
