<?xml version="1.0" encoding="utf-8"?>
<!-- Generator: Adobe Illustrator 19.1.1, SVG Export Plug-In . SVG Version: 6.00 Build 0)  -->
<svg version="1.1" id="Layer_1" xmlns="http://www.w3.org/2000/svg" xmlns:xlink="http://www.w3.org/1999/xlink" x="0px" y="0px"
	 viewBox="0 0 21.5 9.1" enable-background="new 0 0 21.5 9.1" xml:space="preserve">
<g>
	<defs>
		<rect id="SVGID_1_" y="0" width="21.5" height="9.1"/>
	</defs>
	<clipPath id="SVGID_2_">
		<use xlink:href="#SVGID_1_"  overflow="visible"/>
	</clipPath>
	<path clip-path="url(#SVGID_2_)" fill="#9A9A9A" d="M21.3,0.2h-0.9c-0.2,0-0.2,0.1-0.2,0.2v6.3c0,0.2,0.1,0.2,0.2,0.2h0.9
		c0.1,0,0.2,0,0.2-0.2V0.4C21.4,0.2,21.4,0.2,21.3,0.2 M8.9,0.2H8c-0.2,0-0.2,0.1-0.2,0.2v6.3c0,0.2,0.1,0.2,0.2,0.2h0.9
		c0.1,0,0.2,0,0.2-0.2V0.4C9.1,0.2,9,0.2,8.9,0.2 M6,8.5C5.4,8.4,4.2,8,3.9,6.9C5.6,6.3,6,4.6,6,3.5C6,1.4,4.8,0,3,0
		C1.4,0,0,1.2,0,3.6C0,5.1,0.7,6.7,2.6,7c0.8,1.8,3.3,2.1,3.5,2.1c0.3,0,0.3-0.2,0.3-0.3C6.4,8.6,6.2,8.6,6,8.5 M3,6.2
		c-0.1,0-0.8,0-1.3-0.8C1.4,4.8,1.3,4,1.3,3.4S1.4,2,1.7,1.5C2.1,1.1,2.6,0.8,3,0.8c0.2,0,0.8,0.1,1.2,0.7c0.4,0.7,0.5,1.5,0.5,2
		c0,0.6,0,1.4-0.4,1.9C4,6,3.5,6.2,3,6.2 M18.4,0.2h-0.6c-0.1,0-0.2,0-0.2,0.2l-1.1,4.3l-1.3-4.3C15,0.2,15,0.2,14.9,0.2h-0.4
		c-0.1,0-0.1,0.1-0.2,0.2L13,4.7l-1-4.3c0-0.2-0.1-0.2-0.2-0.2h-0.9c-0.1,0-0.2,0-0.2,0.1v0.2l1.8,6.2c0,0.2,0.1,0.2,0.3,0.2h0.4
		c0.1,0,0.1,0,0.2-0.2l1.3-4l1.4,4.1c0,0.1,0.1,0.2,0.2,0.2h0.5C16.9,7,17,7,17,6.8l1.7-6.2V0.4C18.6,0.2,18.5,0.2,18.4,0.2"/>
</g>
</svg>
