<?xml version="1.0" encoding="utf-8"?>
<!-- Generator: Adobe Illustrator 19.1.1, SVG Export Plug-In . SVG Version: 6.00 Build 0)  -->
<svg version="1.1" id="Layer_1" xmlns="http://www.w3.org/2000/svg" xmlns:xlink="http://www.w3.org/1999/xlink" x="0px" y="0px"
	 viewBox="0 0 50 90.6" enable-background="new 0 0 50 90.6" xml:space="preserve">
<g>
	<defs>
		<rect id="SVGID_1_" y="0" width="50" height="90.6"/>
	</defs>
	<clipPath id="SVGID_2_">
		<use xlink:href="#SVGID_1_"  overflow="visible"/>
	</clipPath>
	
		<path clip-path="url(#SVGID_2_)" fill="none" stroke="#010203" stroke-width="2" stroke-linecap="round" stroke-linejoin="round" stroke-miterlimit="10" d="
		M9.5,42.2L6.2,6C6.1,4.4,6.7,2.9,8.3,2.5c2.3-0.6,3.7,0.8,4,2.7L17,36.8"/>
	
		<path clip-path="url(#SVGID_2_)" fill="none" stroke="#010203" stroke-width="2" stroke-linecap="round" stroke-linejoin="round" stroke-miterlimit="10" d="
		M17,36.6l-0.2-1.9c-0.3-2.5,1.5-4.8,4-5.1c2.7-0.3,5.1,1.8,5.1,4.5v3.4"/>
	
		<path clip-path="url(#SVGID_2_)" fill="none" stroke="#010203" stroke-width="2" stroke-linecap="round" stroke-linejoin="round" stroke-miterlimit="10" d="
		M13.8,89.6l-0.7-15.8c0-1.9-0.4-3.8-1.3-5.4L2.3,47c-2.2-4-1.6-8.6,2.8-10"/>
	
		<path clip-path="url(#SVGID_2_)" fill="none" stroke="#010203" stroke-width="2" stroke-linecap="round" stroke-linejoin="round" stroke-miterlimit="10" d="
		M25.8,36.4v-2.3c0-2.3,1.8-4.1,4.1-4.1c2.3,0,4.1,1.8,4.1,4.1v2.1l9.6-21.6c0.6-1.3,2.2-1.9,3.4-1.2l0.1,0c1.1,0.6,1.7,1.8,1.4,3
		c-1,3.7-3.5,11.8-5.3,18c-1.3,4.7-2.6,9.5-3.2,14.3c-0.5,3.9-1.4,9.1-3.2,13.1c-2.3,5.1-2.8,5.7-3.5,8.9C32.5,74.6,35,89.6,35,89.6
		"/>
	<path clip-path="url(#SVGID_2_)" fill="#F55490" d="M12.9,5c0.3,2.9-0.7,5.3-2,5.4s-2.7-2.1-3-5C7.7,2.6,8.6,0.1,10,0
		C11.3-0.1,12.7,2.1,12.9,5"/>
	<path clip-path="url(#SVGID_2_)" fill="#F55490" d="M49.6,16.6c-0.7,2.2-2.2,3.7-3.3,3.3c-1.1-0.4-1.3-2.4-0.6-4.6
		c0.7-2.2,2.2-3.7,3.3-3.3C50.1,12.4,50.4,14.4,49.6,16.6"/>
</g>
</svg>
